<svg width="96" height="96" viewBox="0 0 96 96" fill="none" xmlns="http://www.w3.org/2000/svg">
<g clip-path="url(#clip0_10_52)">
<path d="M48 8C25.92 8 8 25.92 8 48C8 70.08 25.92 88 48 88C70.08 88 88 70.08 88 48C88 25.92 70.08 8 48 8ZM48 24C55.72 24 62 30.28 62 38C62 45.72 55.72 52 48 52C40.28 52 34 45.72 34 38C34 30.28 40.28 24 48 24ZM48 80C39.88 80 30.28 76.72 23.44 68.48C30.2 63.2 38.72 60 48 60C57.28 60 65.8 63.2 72.56 68.48C65.72 76.72 56.12 80 48 80Z" fill="white"/>
</g>
<defs>
<clipPath id="clip0_10_52">
<rect width="96" height="96" fill="white"/>
</clipPath>
</defs>
</svg>
