<svg width="96" height="96" viewBox="0 0 96 96" fill="none" xmlns="http://www.w3.org/2000/svg">
<g clip-path="url(#clip0_13_84)">
<path d="M66.12 44.24L61.88 40L42.36 59.52L33.88 51.04L29.64 55.28L42.36 68L66.12 44.24ZM76 12H72V4H64V12H32V4H24V12H20C15.56 12 12.04 15.6 12.04 20L12 76C12 80.4 15.56 84 20 84H76C80.4 84 84 80.4 84 76V20C84 15.6 80.4 12 76 12ZM76 76H20V32H76V76Z" fill="white"/>
</g>
<defs>
<clipPath id="clip0_13_84">
<rect width="96" height="96" fill="white"/>
</clipPath>
</defs>
</svg>
