<svg width="96" height="96" viewBox="0 0 96 96" fill="none" xmlns="http://www.w3.org/2000/svg">
<g clip-path="url(#clip0_13_87)">
<path d="M76 56V24C76 19.6 72.4 16 68 16H12C7.6 16 4 19.6 4 24V56C4 60.4 7.6 64 12 64H68C72.4 64 76 60.4 76 56ZM40 52C33.36 52 28 46.64 28 40C28 33.36 33.36 28 40 28C46.64 28 52 33.36 52 40C52 46.64 46.64 52 40 52ZM92 28V72C92 76.4 88.4 80 84 80H16V72H84V28H92Z" fill="#334155"/>
</g>
<defs>
<clipPath id="clip0_13_87">
<rect width="96" height="96" fill="white"/>
</clipPath>
</defs>
</svg>
